<svg id="Layer_1" data-name="Layer 1" xmlns="http://www.w3.org/2000/svg" viewBox="0 0 1653.82 269.11"><title>Full logo [Black]</title><path d="M180.49,269.11V74.47a55.58,55.58,0,0,0-31.86-50.25l-7-3.32a55.8,55.8,0,0,0-23.7-5.31H78a59.42,59.42,0,0,0-53.19,32.6l-2.66,5.22a59.69,59.69,0,0,0,53.19,86.78h82.43v15.58H75.32A75.28,75.28,0,0,1,8.24,46.34l2.66-5.23A74.92,74.92,0,0,1,65.45,1V0h52.43a71.55,71.55,0,0,1,30.35,6.8l7.05,3.33a71.11,71.11,0,0,1,40.8,64.34V219.78l18.65-21.91.84-.58a108.47,108.47,0,0,1,62-18.94h25a61.26,61.26,0,1,0,0-122.51H223V40.25H302.6a76.85,76.85,0,1,1,0,153.69h-25a93.07,93.07,0,0,0-52.36,15.61l-16.85,19.8Z"/><circle cx="246.18" cy="119.5" r="8.05"/><circle cx="282.71" cy="119.5" r="8.05"/><circle cx="317.9" cy="119.5" r="8.05"/><circle cx="55.98" cy="74.43" r="8.05"/><circle cx="92.51" cy="74.43" r="8.05"/><circle cx="127.69" cy="74.43" r="8.05"/><path d="M461.8,57.65h35.66V74h.5a30.08,30.08,0,0,1,5-6.93,36.37,36.37,0,0,1,7.68-6.2,44,44,0,0,1,10.15-4.45,42.6,42.6,0,0,1,12.39-1.74,47.08,47.08,0,0,1,22.41,5.2q9.78,5.21,14.74,16.35,6.44-11.64,15.6-16.59t22.54-5q12.14,0,20.43,4.09A33.39,33.39,0,0,1,642,69.92a46.92,46.92,0,0,1,6.93,16.59A94.27,94.27,0,0,1,651,106.94V178H613.87V107.93a28,28,0,0,0-3.59-14.49q-3.6-6.06-12.76-6.07a24.61,24.61,0,0,0-10.77,2.11,17.75,17.75,0,0,0-6.94,5.82A24.26,24.26,0,0,0,576.1,104a47.43,47.43,0,0,0-1.12,10.4V178H537.83V114.37q0-3.21-.24-7.92a31.87,31.87,0,0,0-1.74-8.92A17,17,0,0,0,531,90.35q-3.35-3-9.78-3-7.18,0-11.64,2.61a17.71,17.71,0,0,0-6.81,6.93,28.43,28.43,0,0,0-3.1,9.78,85.3,85.3,0,0,0-.74,11.4V178H461.8Z"/><path d="M791.2,157.22a59.13,59.13,0,0,1-22.54,17.58,67.47,67.47,0,0,1-28.23,6.2,75.89,75.89,0,0,1-26.13-4.46A62.6,62.6,0,0,1,693,163.78a59.61,59.61,0,0,1-14.24-19.94,63,63,0,0,1-5.2-26,63.06,63.06,0,0,1,5.2-26A59.77,59.77,0,0,1,693,71.9a62.76,62.76,0,0,1,21.3-12.76,75.89,75.89,0,0,1,26.13-4.46,59.48,59.48,0,0,1,23.4,4.46A48.7,48.7,0,0,1,781.66,71.9a58.12,58.12,0,0,1,11.27,19.93,80.46,80.46,0,0,1,4,26v11.64H710.71a29.33,29.33,0,0,0,9.65,17q7.44,6.33,18.33,6.32,9.16,0,15.48-4.09a41.47,41.47,0,0,0,11-10.52Zm-31.45-53a21.5,21.5,0,0,0-6.2-16.1q-6.43-6.69-16.59-6.69a27.93,27.93,0,0,0-10.9,2,27.57,27.57,0,0,0-8,5.08,22.36,22.36,0,0,0-5.2,7.18,23.57,23.57,0,0,0-2.1,8.55Z"/><path d="M819.43,57.65H855.1V74h.49a30.08,30.08,0,0,1,4.95-6.93,36.37,36.37,0,0,1,7.68-6.2,43.87,43.87,0,0,1,10.16-4.45,42.48,42.48,0,0,1,12.38-1.74q14.12,0,22.79,4.34A33,33,0,0,1,927,71a48.7,48.7,0,0,1,6.57,18.08,138,138,0,0,1,1.73,22.54V178H898.19V119.08q0-5.2-.37-10.78A34,34,0,0,0,895.59,98a17.74,17.74,0,0,0-5.7-7.68q-3.84-3-11-3T867.23,90a17.71,17.71,0,0,0-6.81,6.93,28.43,28.43,0,0,0-3.1,9.78,85.3,85.3,0,0,0-.74,11.4V178H819.43Z"/><path d="M1043.57,87.37h-32.69V127.5a75.72,75.72,0,0,0,.49,9,18.22,18.22,0,0,0,2.23,7.06,11.21,11.21,0,0,0,5.33,4.58,23.64,23.64,0,0,0,9.53,1.61,64.82,64.82,0,0,0,7.8-.62q4.83-.61,7.31-2.85v31a56.25,56.25,0,0,1-12.88,3,117.86,117.86,0,0,1-13.13.75,71.39,71.39,0,0,1-17.33-2,39.44,39.44,0,0,1-13.87-6.31,29.65,29.65,0,0,1-9.29-11.27q-3.35-6.93-3.34-16.84V87.37H950V57.65h23.78V22h37.15V57.65h32.69Z"/><path d="M1057.93,117.84a63.22,63.22,0,0,1,5.2-26,60.05,60.05,0,0,1,14.24-19.93,62.9,62.9,0,0,1,21.31-12.76,78.75,78.75,0,0,1,52.25,0,62.86,62.86,0,0,1,21.3,12.76,59.77,59.77,0,0,1,14.24,19.93,63.06,63.06,0,0,1,5.2,26,63,63,0,0,1-5.2,26,59.61,59.61,0,0,1-14.24,19.94,62.7,62.7,0,0,1-21.3,12.76,78.75,78.75,0,0,1-52.25,0,62.74,62.74,0,0,1-21.31-12.76,59.89,59.89,0,0,1-14.24-19.94A63.11,63.11,0,0,1,1057.93,117.84Zm37.15,0q0,13.62,7.81,22t21.91,8.42q14.13,0,21.92-8.42t7.8-22q0-13.62-7.8-22t-21.92-8.43q-14.11,0-21.91,8.43T1095.08,117.84Z"/><path d="M1213.46,57.65h37.15V77h.5q5.94-11.14,14.12-16.71t20.55-5.58c2.15,0,4.3.09,6.44.25a32.82,32.82,0,0,1,6,1V89.85a56.7,56.7,0,0,0-7.8-1.85,50.9,50.9,0,0,0-8-.63q-10.65,0-16.84,3a22.41,22.41,0,0,0-9.54,8.29,31.45,31.45,0,0,0-4.33,12.76,122.46,122.46,0,0,0-1,16.35V178h-37.15Z"/><path d="M1318.72,57.65h35.67V74h.49a30.15,30.15,0,0,1,5-6.93,36.06,36.06,0,0,1,7.67-6.2,44.06,44.06,0,0,1,10.16-4.45,42.48,42.48,0,0,1,12.38-1.74,47.15,47.15,0,0,1,22.42,5.2q9.78,5.21,14.73,16.35,6.43-11.64,15.61-16.59t22.53-5q12.14,0,20.44,4.09a33.36,33.36,0,0,1,13.12,11.15,47.11,47.11,0,0,1,6.94,16.59,94.91,94.91,0,0,1,2.1,20.43V178h-37.15V107.93a28,28,0,0,0-3.59-14.49q-3.59-6.06-12.75-6.07a24.62,24.62,0,0,0-10.78,2.11,17.64,17.64,0,0,0-6.93,5.82A24.27,24.27,0,0,0,1433,104a47.43,47.43,0,0,0-1.11,10.4V178h-37.15V114.37c0-2.14-.09-4.78-.25-7.92a31.87,31.87,0,0,0-1.73-8.92,17,17,0,0,0-4.83-7.18q-3.35-3-9.79-3c-4.79,0-8.66.87-11.64,2.61a17.71,17.71,0,0,0-6.81,6.93,28.2,28.2,0,0,0-3.09,9.78,83.64,83.64,0,0,0-.75,11.4V178h-37.15Z"/><path d="M1648.12,157.22a59.13,59.13,0,0,1-22.54,17.58,67.47,67.47,0,0,1-28.23,6.2,75.89,75.89,0,0,1-26.13-4.46,62.79,62.79,0,0,1-21.3-12.76,59.75,59.75,0,0,1-14.24-19.94,63,63,0,0,1-5.2-26,63.06,63.06,0,0,1,5.2-26,59.91,59.91,0,0,1,14.24-19.93,63,63,0,0,1,21.3-12.76,75.89,75.89,0,0,1,26.13-4.46,59.48,59.48,0,0,1,23.4,4.46,48.82,48.82,0,0,1,17.84,12.76,58.27,58.27,0,0,1,11.26,19.93,80.19,80.19,0,0,1,4,26v11.64h-86.19a29.34,29.34,0,0,0,9.66,17q7.43,6.33,18.32,6.32,9.17,0,15.48-4.09a41.5,41.5,0,0,0,11-10.52Zm-31.45-53a21.53,21.53,0,0,0-6.19-16.1q-6.45-6.69-16.6-6.69a27.09,27.09,0,0,0-19,7.06,22.52,22.52,0,0,0-5.2,7.18,23.77,23.77,0,0,0-2.1,8.55Z"/></svg>