<svg id="Layer_1" data-name="Layer 1" xmlns="http://www.w3.org/2000/svg" viewBox="0 0 662.41 469.79"><defs><style>.cls-1{fill:#fff;}</style></defs><title>Icon [White]</title><path class="cls-1" d="M315.08,469.79V130a97,97,0,0,0-55.61-87.73l-12.31-5.8a97.49,97.49,0,0,0-41.38-9.27H136.13A103.74,103.74,0,0,0,43.28,84.12l-4.65,9.13a104.19,104.19,0,0,0,92.85,151.47h143.9v27.21H131.48A131.39,131.39,0,0,1,14.39,80.9L19,71.77a130.75,130.75,0,0,1,95.22-70V0h91.53a125.06,125.06,0,0,1,53,11.87l12.31,5.81A124.16,124.16,0,0,1,342.29,130V383.67l32.56-38.24,1.47-1c31.3-21.63,68.75-33.05,108.3-33.05h43.64a106.95,106.95,0,0,0,0-213.89h-139V70.27h139c74,0,134.15,60.17,134.15,134.15S602.23,338.56,528.26,338.56H484.62c-33.38,0-64.95,9.42-91.39,27.25l-29.42,34.56Z"/><circle class="cls-1" cx="429.76" cy="208.61" r="14.05"/><circle class="cls-1" cx="493.53" cy="208.61" r="14.05"/><circle class="cls-1" cx="554.96" cy="208.61" r="14.05"/><circle class="cls-1" cx="97.72" cy="129.93" r="14.05"/><circle class="cls-1" cx="161.49" cy="129.93" r="14.05"/><circle class="cls-1" cx="222.92" cy="129.93" r="14.05"/></svg>